<svg width="32" height="32" viewBox="0 0 32 32" fill="none" xmlns="http://www.w3.org/2000/svg">
<path d="M11.9974 29.3307H19.9974C26.6641 29.3307 29.3307 26.6641 29.3307 19.9974V11.9974C29.3307 5.33073 26.6641 2.66406 19.9974 2.66406H11.9974C5.33073 2.66406 2.66406 5.33073 2.66406 11.9974V19.9974C2.66406 26.6641 5.33073 29.3307 11.9974 29.3307Z" fill="#F5F5F5"/>
<path d="M16.9475 9.70431L10.79 16.2218C10.5575 16.4693 10.3325 16.9568 10.2875 17.2943L10.01 19.7243C9.91245 20.6018 10.5425 21.2018 11.4125 21.0518L13.8275 20.6393C14.165 20.5793 14.6375 20.3318 14.87 20.0768L21.0275 13.5593C22.0925 12.4343 22.5725 11.1518 20.915 9.58431C19.265 8.03181 18.0125 8.57931 16.9475 9.70431Z" stroke="#808080" stroke-width="1.125" stroke-miterlimit="10" stroke-linecap="round" stroke-linejoin="round"/>
<path d="M15.9141 10.7891C16.2366 12.8591 17.9166 14.4416 20.0016 14.6516" stroke="#808080" stroke-width="1.125" stroke-miterlimit="10" stroke-linecap="round" stroke-linejoin="round"/>
<path d="M9.25 23.5H22.75" stroke="#808080" stroke-width="1.125" stroke-miterlimit="10" stroke-linecap="round" stroke-linejoin="round"/>
</svg>
